<svg 
    width="25" height="24" viewBox="0 0 25 24" fill="none" xmlns="http://www.w3.org/2000/svg">
    <path d="M5.77587 9.74998C5.77462 8.86084 5.9493 7.98023 6.28983 7.15888C6.63037 6.33753 7.13004 5.59167 7.76007 4.96426C8.3901 4.33685 9.13803 3.84028 9.96079 3.50317C10.7835 3.16605 11.6649 2.99503 12.554 2.99998C16.2665 3.02811 19.2384 6.11248 19.2384 9.83436V10.5C19.2384 13.8562 19.9415 15.8062 20.5602 16.875C20.626 16.9888 20.6606 17.1179 20.6607 17.2493C20.6608 17.3808 20.6264 17.5099 20.5609 17.6238C20.4954 17.7378 20.4011 17.8325 20.2874 17.8985C20.1738 17.9645 20.0448 17.9995 19.9134 18H5.10087C4.96945 17.9995 4.84045 17.9645 4.7268 17.8985C4.61315 17.8325 4.51885 17.7378 4.45334 17.6238C4.38782 17.5099 4.3534 17.3808 4.35352 17.2493C4.35363 17.1179 4.38828 16.9888 4.454 16.875C5.07275 15.8062 5.77587 13.8562 5.77587 10.5V9.74998Z" stroke="white" stroke-width="2" stroke-linecap="round" stroke-linejoin="round"/>
    <path d="M9.50684 18V18.75C9.50684 19.5456 9.82291 20.3087 10.3855 20.8713C10.9481 21.4339 11.7112 21.75 12.5068 21.75C13.3025 21.75 14.0655 21.4339 14.6282 20.8713C15.1908 20.3087 15.5068 19.5456 15.5068 18.75V18" stroke="white" stroke-width="2" stroke-linecap="round" stroke-linejoin="round"/>
    <circle cx="18.0068" cy="4.5" r="2.5" fill="#FF7373"/>
</svg>    