<svg width="50" height="50" viewBox="0 0 50 50" fill="none" xmlns="http://www.w3.org/2000/svg">
<g clip-path="url(#clip0_369_314)">
<path d="M27.541 24.4312L37.666 14.3062C37.8936 14.0405 38.0125 13.6987 37.999 13.3492C37.9855 12.9996 37.8406 12.668 37.5932 12.4207C37.3459 12.1733 37.0143 12.0284 36.6647 12.0149C36.3152 12.0014 35.9734 12.1203 35.7077 12.3479L25.5827 22.4729L15.4577 12.334C15.192 12.1064 14.8502 11.9875 14.5007 12.001C14.1511 12.0145 13.8195 12.1594 13.5722 12.4068C13.3248 12.6541 13.1799 12.9857 13.1664 13.3353C13.1529 13.6848 13.2718 14.0266 13.4994 14.2923L23.6244 24.4312L13.4855 34.5562C13.3401 34.6807 13.222 34.8339 13.1386 35.0062C13.0553 35.1785 13.0084 35.3662 13.001 35.5575C12.9936 35.7488 13.0259 35.9395 13.0957 36.1178C13.1655 36.296 13.2714 36.4579 13.4068 36.5932C13.5422 36.7286 13.704 36.8345 13.8823 36.9043C14.0605 36.9741 14.2512 37.0064 14.4425 36.999C14.6338 36.9916 14.8215 36.9447 14.9938 36.8614C15.1661 36.778 15.3193 36.6599 15.4438 36.5145L25.5827 26.3895L35.7077 36.5145C35.9734 36.7421 36.3152 36.861 36.6647 36.8475C37.0143 36.834 37.3459 36.689 37.5932 36.4417C37.8406 36.1943 37.9855 35.8628 37.999 35.5132C38.0125 35.1637 37.8936 34.8219 37.666 34.5562L27.541 24.4312Z" fill="black"/>
</g>
<defs>
<clipPath id="clip0_369_314">
<rect width="50" height="50" fill="white"/>
</clipPath>
</defs>
</svg>
