<svg 
    width="24" height="24" viewBox="0 0 24 24" fill="none" xmlns="http://www.w3.org/2000/svg">
    <path d="M12.534 19.8656L20.1278 12.2719C21.9934 10.3969 22.2653 7.33126 20.5028 5.37188C20.0607 4.87811 19.5227 4.47965 18.9215 4.20084C18.3203 3.92203 17.6685 3.76872 17.0061 3.7503C16.3436 3.73187 15.6844 3.84871 15.0686 4.09367C14.4528 4.33863 13.8934 4.70657 13.4246 5.17501L11.9996 6.60938L10.7715 5.37188C8.89652 3.50626 5.83089 3.23438 3.87152 4.99688C3.37774 5.4389 2.97928 5.97695 2.70047 6.57816C2.42166 7.17938 2.26836 7.83112 2.24993 8.49358C2.23151 9.15604 2.34834 9.8153 2.5933 10.4311C2.83826 11.0469 3.2062 11.6062 3.67464 12.075L11.4653 19.8656C11.6075 20.0065 11.7995 20.0855 11.9996 20.0855C12.1998 20.0855 12.3918 20.0065 12.534 19.8656V19.8656Z" stroke="white" stroke-width="2" stroke-linecap="round" stroke-linejoin="round"/>
</svg>