<svg width="32" height="32" viewBox="0 0 32 32" fill="none" xmlns="http://www.w3.org/2000/svg">
<rect x="0.815635" y="0.605186" width="30.7895" height="30.7895" rx="15.3947" stroke="white" stroke-width="0.789474"/>
<g clip-path="url(#clip0_223_515)">
<path fill-rule="evenodd" clip-rule="evenodd" d="M13.2269 8.8066C13.9986 8.77108 14.2447 8.76318 16.2105 8.76318C18.1763 8.76318 18.4223 8.77174 19.1934 8.8066C19.9644 8.84147 20.4907 8.9645 20.9513 9.14279C21.4335 9.32503 21.871 9.60989 22.2328 9.97832C22.6013 10.3395 22.8855 10.7763 23.0671 11.2592C23.246 11.7198 23.3684 12.2461 23.4039 13.0158C23.4394 13.7888 23.4473 14.0349 23.4473 16C23.4473 17.9658 23.4388 18.2119 23.4039 18.9836C23.369 19.7533 23.246 20.2796 23.0671 20.7402C22.8855 21.2231 22.6008 21.6607 22.2328 22.0224C21.871 22.3908 21.4335 22.675 20.9513 22.8566C20.4907 23.0356 19.9644 23.1579 19.1947 23.1934C18.4223 23.229 18.1763 23.2369 16.2105 23.2369C14.2447 23.2369 13.9986 23.2283 13.2269 23.1934C12.4572 23.1586 11.9309 23.0356 11.4703 22.8566C10.9874 22.675 10.5498 22.3903 10.1881 22.0224C9.81994 21.661 9.53502 21.2236 9.35324 20.7408C9.17495 20.2803 9.05258 19.754 9.01705 18.9842C8.98153 18.2112 8.97363 17.9652 8.97363 16C8.97363 14.0342 8.98219 13.7882 9.01705 13.0171C9.05192 12.2461 9.17495 11.7198 9.35324 11.2592C9.53529 10.7764 9.82042 10.339 10.1888 9.97766C10.55 9.60957 10.9871 9.32466 11.4697 9.14279C11.9302 8.9645 12.4565 8.84213 13.2263 8.8066H13.2269ZM19.1348 10.1092C18.3717 10.0744 18.1427 10.0671 16.2105 10.0671C14.2782 10.0671 14.0493 10.0744 13.2861 10.1092C12.5802 10.1415 12.1973 10.2592 11.9421 10.3586C11.6046 10.4902 11.3631 10.6461 11.1098 10.8994C10.8697 11.133 10.6849 11.4173 10.569 11.7316C10.4697 11.9869 10.3519 12.3698 10.3197 13.0757C10.2848 13.8388 10.2776 14.0678 10.2776 16C10.2776 17.9323 10.2848 18.1612 10.3197 18.9244C10.3519 19.6303 10.4697 20.0132 10.569 20.2684C10.6848 20.5823 10.8697 20.8671 11.1098 21.1007C11.3434 21.3408 11.6282 21.5257 11.9421 21.6415C12.1973 21.7408 12.5802 21.8586 13.2861 21.8908C14.0493 21.9257 14.2776 21.9329 16.2105 21.9329C18.1434 21.9329 18.3717 21.9257 19.1348 21.8908C19.8407 21.8586 20.2236 21.7408 20.4789 21.6415C20.8164 21.5099 21.0578 21.354 21.3111 21.1007C21.5513 20.8671 21.7361 20.5823 21.8519 20.2684C21.9513 20.0132 22.069 19.6303 22.1013 18.9244C22.1361 18.1612 22.1434 17.9323 22.1434 16C22.1434 14.0678 22.1361 13.8388 22.1013 13.0757C22.069 12.3698 21.9513 11.9869 21.8519 11.7316C21.7203 11.3941 21.5644 11.1527 21.3111 10.8994C21.0775 10.6593 20.7932 10.4745 20.4789 10.3586C20.2236 10.2592 19.8407 10.1415 19.1348 10.1092ZM15.2861 18.2309C15.8024 18.4458 16.3772 18.4748 16.9124 18.313C17.4476 18.1512 17.9101 17.8085 18.2207 17.3436C18.5314 16.8787 18.671 16.3203 18.6158 15.7639C18.5605 15.2075 18.3138 14.6875 17.9177 14.2928C17.6652 14.0405 17.36 13.8473 17.0239 13.7271C16.6877 13.6069 16.3292 13.5628 15.974 13.5978C15.6187 13.6328 15.2757 13.7462 14.9696 13.9297C14.6634 14.1132 14.4018 14.3624 14.2034 14.6591C14.0051 14.9559 13.8751 15.293 13.8227 15.6461C13.7702 15.9991 13.7968 16.3594 13.9003 16.701C14.0038 17.0426 14.1818 17.357 14.4215 17.6216C14.6611 17.8861 14.9564 18.0942 15.2861 18.2309ZM13.5802 13.3698C13.9256 13.0244 14.3357 12.7504 14.787 12.5634C15.2383 12.3765 15.722 12.2803 16.2105 12.2803C16.699 12.2803 17.1827 12.3765 17.634 12.5634C18.0853 12.7504 18.4953 13.0244 18.8407 13.3698C19.1861 13.7152 19.4601 14.1252 19.6471 14.5765C19.834 15.0278 19.9302 15.5115 19.9302 16C19.9302 16.4885 19.834 16.9722 19.6471 17.4235C19.4601 17.8748 19.1861 18.2849 18.8407 18.6303C18.1431 19.3279 17.197 19.7198 16.2105 19.7198C15.2239 19.7198 14.2778 19.3279 13.5802 18.6303C12.8826 17.9327 12.4907 16.9866 12.4907 16C12.4907 15.0135 12.8826 14.0674 13.5802 13.3698ZM20.7552 12.8342C20.8408 12.7535 20.9093 12.6564 20.9567 12.5487C21.0041 12.441 21.0294 12.3249 21.0311 12.2072C21.0329 12.0896 21.011 11.9728 20.9667 11.8637C20.9225 11.7547 20.8568 11.6556 20.7736 11.5724C20.6904 11.4892 20.5913 11.4236 20.4823 11.3793C20.3733 11.3351 20.2565 11.3132 20.1388 11.3149C20.0212 11.3166 19.905 11.3419 19.7973 11.3893C19.6896 11.4367 19.5925 11.5052 19.5118 11.5908C19.3548 11.7573 19.2688 11.9784 19.2721 12.2072C19.2755 12.436 19.3678 12.6546 19.5297 12.8164C19.6915 12.9782 19.91 13.0706 20.1388 13.0739C20.3676 13.0772 20.5887 12.9913 20.7552 12.8342Z" fill="white"/>
</g>
<defs>
<clipPath id="clip0_223_515">
<rect width="15.7895" height="15.7895" fill="white" transform="translate(8.31543 8.10522)"/>
</clipPath>
</defs>
</svg>
