<svg width="21" height="21" viewBox="0 0 21 21" fill="none" xmlns="http://www.w3.org/2000/svg">
<path d="M13.0752 3.28125C14.1883 3.57999 15.2033 4.16625 16.0182 4.98119C16.8332 5.79614 17.4194 6.8111 17.7182 7.92422" stroke="white" stroke-width="1.3125" stroke-linecap="round" stroke-linejoin="round"/>
<path d="M12.3955 5.81616C13.065 5.99396 13.6756 6.34558 14.1654 6.83538C14.6552 7.32518 15.0068 7.93575 15.1846 8.60522" stroke="white" stroke-width="1.3125" stroke-linecap="round" stroke-linejoin="round"/>
<path d="M7.58789 10.2376C8.26319 11.6321 9.39084 12.7569 10.7871 13.4286C10.8901 13.4773 11.004 13.4984 11.1177 13.4898C11.2313 13.4812 11.3407 13.4431 11.4352 13.3794L13.4859 12.0094C13.5765 11.948 13.6812 11.9105 13.7903 11.9004C13.8993 11.8904 14.0091 11.9081 14.1094 11.952L17.9484 13.6008C18.0796 13.6554 18.1893 13.7517 18.2604 13.8747C18.3316 13.9977 18.3603 14.1407 18.3422 14.2817C18.2205 15.2314 17.7569 16.1042 17.0383 16.7369C16.3196 17.3695 15.395 17.7186 14.4375 17.7188C11.4787 17.7188 8.64104 16.5434 6.54884 14.4512C4.45664 12.359 3.28125 9.52138 3.28125 6.56256C3.28147 5.60509 3.63055 4.6805 4.26319 3.9618C4.89582 3.24311 5.76865 2.77955 6.71836 2.65787C6.85932 2.63976 7.00233 2.6685 7.12535 2.73964C7.24838 2.81079 7.34461 2.92041 7.39922 3.05162L9.04805 6.89889C9.09092 6.99761 9.10886 7.10536 9.10028 7.21265C9.09169 7.31994 9.05685 7.42347 8.99883 7.51412L7.62891 9.59771C7.56792 9.69195 7.53212 9.80026 7.52494 9.91229C7.51776 10.0243 7.53943 10.1363 7.58789 10.2376V10.2376Z" stroke="white" stroke-width="1.3125" stroke-linecap="round" stroke-linejoin="round"/>
</svg>
