<svg width="32" height="32" viewBox="0 0 32 32" fill="none" xmlns="http://www.w3.org/2000/svg">
<g clip-path="url(#clip0_223_507)">
<path d="M23.6598 11.3533C23.1105 11.5967 22.5204 11.7612 21.9 11.8356C22.5401 11.4525 23.019 10.8497 23.2473 10.1395C22.6459 10.4967 21.9877 10.7482 21.3013 10.8829C20.8397 10.3901 20.2283 10.0634 19.562 9.95363C18.8958 9.84386 18.2119 9.95712 17.6166 10.2758C17.0213 10.5946 16.5478 11.1009 16.2698 11.7163C15.9918 12.3316 15.9247 13.0216 16.0789 13.679C14.8603 13.6178 13.6681 13.301 12.5799 12.7493C11.4916 12.1976 10.5314 11.4232 9.76181 10.4763C9.49865 10.9303 9.34734 11.4566 9.34734 12.0171C9.34704 12.5217 9.47131 13.0186 9.7091 13.4637C9.94689 13.9087 10.2909 14.2882 10.7105 14.5684C10.2238 14.553 9.74791 14.4215 9.32234 14.1849V14.2244C9.32229 14.9321 9.5671 15.618 10.0152 16.1658C10.4633 16.7136 11.0872 17.0895 11.7809 17.2296C11.3294 17.3518 10.8561 17.3698 10.3967 17.2823C10.5924 17.8912 10.9737 18.4237 11.4871 18.8052C12.0005 19.1868 12.6203 19.3982 13.2598 19.4099C12.1742 20.2621 10.8334 20.7244 9.45326 20.7224C9.20877 20.7225 8.96449 20.7082 8.72168 20.6796C10.1227 21.5804 11.7535 22.0585 13.419 22.0566C19.0572 22.0566 22.1394 17.3869 22.1394 13.3369C22.1394 13.2053 22.1362 13.0724 22.1302 12.9408C22.7298 12.5072 23.2473 11.9704 23.6585 11.3553L23.6598 11.3533Z" fill="white"/>
</g>
<rect x="0.605674" y="0.605186" width="30.7895" height="30.7895" rx="15.3947" stroke="white" stroke-width="0.789474"/>
<defs>
<clipPath id="clip0_223_507">
<rect width="15.7895" height="15.7895" fill="white" transform="translate(8.10547 8.10522)"/>
</clipPath>
</defs>
</svg>
